<svg width="35" height="35" viewBox="0 0 16 18" fill="none" xmlns="http://www.w3.org/2000/svg">
<path fill-rule="evenodd" clip-rule="evenodd" d="M7.17595 17.2844C7.22722 17.6877 7.57674 18 7.99983 18C8.45819 18 8.83019 17.6335 8.83019 17.1818V2.79927L14.0813 7.99527L14.1661 8.06877C14.4909 8.31379 14.9576 8.28945 15.256 7.99745C15.5804 7.67891 15.5815 7.16073 15.2582 6.84109L8.58772 0.241091L8.5042 0.168308C8.35812 0.0575758 8.17974 0 7.99983 0C7.89244 0 7.78505 0.0207273 7.68319 0.0621818C7.37209 0.188727 7.16948 0.486545 7.16948 0.818182V17.1818L7.17595 17.2844ZM0.743987 7.99756C1.06949 8.31611 1.59538 8.31611 1.91866 7.99538L5.59768 4.35502L5.672 4.27097C5.91963 3.94949 5.89384 3.49065 5.59546 3.19865C5.43271 3.03938 5.22125 2.95975 5.00979 2.95975C4.79611 2.95975 4.58354 3.03938 4.42079 3.20084L0.741773 6.84011L0.667709 6.92417C0.420918 7.24581 0.446628 7.70556 0.743987 7.99756Z" fill="black"/>
</svg>
