<svg width="35" height="35" viewBox="0 0 20 20" fill="none" xmlns="http://www.w3.org/2000/svg">
    <path fill-rule="evenodd" clip-rule="evenodd"
        d="M11.8244 5.35397C11.8244 3.19398 10.0737 1.43699 7.92144 1.43699C5.7692 1.43699 4.01851 3.19398 4.01851 5.35397C4.01851 7.51396 5.7692 9.27095 7.92144 9.27095C10.0737 9.27095 11.8244 7.51396 11.8244 5.35397ZM13.2552 5.35397C13.2552 8.30596 10.8628 10.7079 7.92144 10.7079C4.98005 10.7079 2.58767 8.30596 2.58767 5.35397C2.58767 2.40199 4.98005 0 7.92144 0C10.8628 0 13.2552 2.40199 13.2552 5.35397ZM19.2527 8.03846H17.9613V6.78447C17.9613 6.37047 17.6266 6.03447 17.214 6.03447C16.8015 6.03447 16.4667 6.37047 16.4667 6.78447V8.03846H15.1774C14.7649 8.03846 14.4301 8.37446 14.4301 8.78846C14.4301 9.20245 14.7649 9.53845 15.1774 9.53845H16.4667V10.7934C16.4667 11.2074 16.8015 11.5434 17.214 11.5434C17.6266 11.5434 17.9613 11.2074 17.9613 10.7934V9.53845H19.2527C19.6652 9.53845 20 9.20245 20 8.78846C20 8.37446 19.6652 8.03846 19.2527 8.03846ZM7.92144 12.64C4.5207 12.64 0 13.02 0 16.31C0 17.295 0.456355 18.625 2.63052 19.364C3.00616 19.494 3.4107 19.288 3.53824 18.914C3.66479 18.539 3.46451 18.131 3.08986 18.004C1.60222 17.498 1.43084 16.795 1.43084 16.31C1.43084 14.828 3.61497 14.076 7.92144 14.076C12.2279 14.076 14.412 14.834 14.412 16.33C14.412 17.813 12.2279 18.564 7.92144 18.564C7.59263 18.564 7.2688 18.56 6.95094 18.55C6.56832 18.553 6.22655 18.851 6.21559 19.247C6.20364 19.644 6.51452 19.975 6.90909 19.987C7.2409 19.995 7.57868 20 7.92144 20C11.3222 20 15.8429 19.619 15.8429 16.33C15.8429 12.64 9.88038 12.64 7.92144 12.64Z"
        fill="black" />
</svg>