<svg width="20" height="20" viewBox="0 0 20 20" fill="none" xmlns="http://www.w3.org/2000/svg">
<path fill-rule="evenodd" clip-rule="evenodd" d="M-0.000244141 9.99982C-0.000244141 4.48482 4.48576 -0.000183105 9.99976 -0.000183105C15.5138 -0.000183105 19.9998 4.48482 19.9998 9.99982C19.9998 15.5138 15.5138 19.9998 9.99976 19.9998C6.87276 19.9998 3.98276 18.5768 2.07276 16.0978C1.82776 15.7788 1.88776 15.3218 2.20576 15.0778C2.52376 14.8318 2.97876 14.8928 3.22476 15.2098C4.85776 17.3298 7.32676 18.5458 9.99976 18.5458C14.7118 18.5458 18.5458 14.7128 18.5458 9.99982C18.5458 5.28782 14.7118 1.45382 9.99976 1.45382C5.28776 1.45382 1.45476 5.28782 1.45476 9.99982C1.45476 10.4378 1.48676 10.8728 1.55176 11.2988C1.61176 11.6948 1.33976 12.0658 0.942756 12.1268C0.543756 12.1928 0.174756 11.9158 0.114756 11.5188C0.0387559 11.0208 -0.000244141 10.5098 -0.000244141 9.99982ZM8.93386 5.83722C8.93386 5.43522 9.25986 5.10922 9.66086 5.10922C10.0619 5.10922 10.3879 5.43522 10.3879 5.83722V10.2832L13.8119 12.3252C14.1569 12.5312 14.2699 12.9772 14.0639 13.3222C13.9289 13.5492 13.6869 13.6762 13.4399 13.6762C13.3129 13.6762 13.1839 13.6432 13.0679 13.5742L9.28786 11.3202C9.06886 11.1882 8.93386 10.9512 8.93386 10.6952V5.83722Z" fill="#1E293B"/>
</svg>
