<svg width="100" height="110" viewBox="0 0 100 110" fill="none" xmlns="http://www.w3.org/2000/svg">
<g opacity="0.9" filter="url(#filter0_d_759_7921)">
<path d="M62.5235 17H27C24.7909 17 23 18.7909 23 21V83C23 85.2091 24.7909 87 27 87H74C76.2091 87 78 85.2091 78 83V31.3099C78 30.1747 77.5176 29.093 76.6731 28.3343L65.1966 18.0244C64.4625 17.3648 63.5104 17 62.5235 17Z" fill="url(#paint0_linear_759_7921)"/>
</g>
<g opacity="0.9" filter="url(#filter1_d_759_7921)">
<path d="M64 31H76.523C77.2304 31 77.7142 30.2855 77.4514 29.6286L77.0865 28.7162C77.0296 28.574 76.9408 28.4467 76.827 28.3443L72 24L65.6257 18.4697C65.5724 18.4233 65.5142 18.3828 65.4523 18.3488L64.4819 17.8151C63.8155 17.4485 63 17.9307 63 18.6913V30C63 30.5523 63.4477 31 64 31Z" fill="url(#paint1_linear_759_7921)"/>
</g>
<path d="M30 29H46.7927" stroke="#006AAD" stroke-width="2" stroke-linecap="round" stroke-linejoin="round"/>
<path d="M30 36H71" stroke="#006AAD" stroke-width="2" stroke-linecap="round" stroke-linejoin="round"/>
<path d="M30 43H71" stroke="#006AAD" stroke-width="2" stroke-linecap="round" stroke-linejoin="round"/>
<path d="M49.4922 66.8196L55.1079 81.538C55.2687 81.9592 55.861 81.9693 56.0359 81.5537L58.1563 76.5153C58.2668 76.2527 58.5742 76.1354 58.8317 76.2576L63.7693 78.603C64.1766 78.7965 64.6117 78.3944 64.451 77.9732L58.8352 63.2548L49.4922 66.8196Z" fill="#006AAD"/>
<path d="M52.4023 66.8196L46.7866 81.538C46.6259 81.9592 46.0335 81.9693 45.8586 81.5537L43.7382 76.5153C43.6277 76.2527 43.3203 76.1354 43.0629 76.2576L38.1253 78.603C37.718 78.7965 37.2828 78.3944 37.4436 77.9732L43.0593 63.2548L52.4023 66.8196Z" fill="#006AAD"/>
<circle cx="50.5" cy="59.5" r="11.5" fill="url(#paint2_linear_759_7921)"/>
<defs>
<filter id="filter0_d_759_7921" x="0" y="14" width="81" height="96" filterUnits="userSpaceOnUse" color-interpolation-filters="sRGB">
<feFlood flood-opacity="0" result="BackgroundImageFix"/>
<feColorMatrix in="SourceAlpha" type="matrix" values="0 0 0 0 0 0 0 0 0 0 0 0 0 0 0 0 0 0 127 0" result="hardAlpha"/>
<feOffset dx="-10" dy="10"/>
<feGaussianBlur stdDeviation="6.5"/>
<feComposite in2="hardAlpha" operator="out"/>
<feColorMatrix type="matrix" values="0 0 0 0 0.509983 0 0 0 0 0.872534 0 0 0 0 0.979167 0 0 0 0.6 0"/>
<feBlend mode="normal" in2="BackgroundImageFix" result="effect1_dropShadow_759_7921"/>
<feBlend mode="normal" in="SourceGraphic" in2="effect1_dropShadow_759_7921" result="shape"/>
</filter>
<filter id="filter1_d_759_7921" x="40" y="14.6899" width="40.524" height="39.3101" filterUnits="userSpaceOnUse" color-interpolation-filters="sRGB">
<feFlood flood-opacity="0" result="BackgroundImageFix"/>
<feColorMatrix in="SourceAlpha" type="matrix" values="0 0 0 0 0 0 0 0 0 0 0 0 0 0 0 0 0 0 127 0" result="hardAlpha"/>
<feOffset dx="-10" dy="10"/>
<feGaussianBlur stdDeviation="6.5"/>
<feComposite in2="hardAlpha" operator="out"/>
<feColorMatrix type="matrix" values="0 0 0 0 0.509983 0 0 0 0 0.872534 0 0 0 0 0.979167 0 0 0 0.6 0"/>
<feBlend mode="normal" in2="BackgroundImageFix" result="effect1_dropShadow_759_7921"/>
<feBlend mode="normal" in="SourceGraphic" in2="effect1_dropShadow_759_7921" result="shape"/>
</filter>
<linearGradient id="paint0_linear_759_7921" x1="29.875" y1="21.375" x2="81.6272" y2="71.1514" gradientUnits="userSpaceOnUse">
<stop stop-color="#2AC4F4"/>
<stop offset="1" stop-color="#B4EDFF"/>
</linearGradient>
<linearGradient id="paint1_linear_759_7921" x1="69.5227" y1="-34.625" x2="121.098" y2="12.4394" gradientUnits="userSpaceOnUse">
<stop stop-color="white"/>
<stop offset="1" stop-color="#B4EDFF"/>
</linearGradient>
<linearGradient id="paint2_linear_759_7921" x1="45.754" y1="50.1882" x2="58.911" y2="69.0525" gradientUnits="userSpaceOnUse">
<stop stop-color="#006AAD"/>
<stop offset="1" stop-color="#31D49F"/>
</linearGradient>
</defs>
</svg>
