<svg width="85" height="85" viewBox="0 0 85 85" fill="none" xmlns="http://www.w3.org/2000/svg">
<g clip-path="url(#clip0_702_8238)">
<g opacity="0.9" filter="url(#filter0_d_702_8238)">
<path d="M49.8725 14H24C21.7909 14 20 15.7909 20 18V61C20 63.2091 21.7909 65 24 65H58C60.2091 65 62 63.2091 62 61V24.9661C62 23.7984 61.4897 22.689 60.6031 21.929L52.4756 14.9629C51.7506 14.3415 50.8273 14 49.8725 14Z" fill="url(#paint0_linear_702_8238)"/>
</g>
<g opacity="0.9" filter="url(#filter1_d_702_8238)">
<path d="M51.7344 24.2H60.3815C61.1256 24.2 61.6091 23.4162 61.2752 22.7512L61.0666 22.3359C61.0083 22.2198 60.9279 22.1161 60.8299 22.0307L56.8807 18.59L52.8797 15.1041C52.8156 15.0483 52.7446 15.0008 52.6685 14.9629L52.1801 14.7197C51.5153 14.3888 50.7344 14.8723 50.7344 15.6149V23.2C50.7344 23.7523 51.1821 24.2 51.7344 24.2Z" fill="url(#paint1_linear_702_8238)"/>
</g>
<path d="M25.4102 23.1802H38.3954" stroke="#006AAD" stroke-width="2" stroke-linecap="round" stroke-linejoin="round"/>
<path d="M25.1211 28.3591H56.8772" stroke="#006AAD" stroke-width="2" stroke-linecap="round" stroke-linejoin="round"/>
<path d="M25.1211 33.4592H56.8772" stroke="#006AAD" stroke-width="2" stroke-linecap="round" stroke-linejoin="round"/>
<path d="M52.0216 56.3286C52.482 57.0029 53.3019 58.5025 53.3019 60.6306C53.3019 62.4008 52.1673 64.7647 51.2558 66.3784H44.0566C43.4731 66.3784 43 66.8463 43 67.4234V72.6486C43 73.2258 43.4731 73.6937 44.0566 73.6937H44.3208V73.955C44.3208 74.5321 44.7938 75 45.3774 75H68.6226C69.2062 75 69.6792 74.5321 69.6792 73.955V73.6937H69.9434C70.5269 73.6937 71 73.2258 71 72.6486V67.4234C71 66.8463 70.5269 66.3784 69.9434 66.3784H62.9147C61.9272 64.7647 60.6981 62.4008 60.6981 60.6306C60.6981 58.8607 61.3597 57.5256 61.8914 56.7383C61.9632 56.6614 62.5433 55.9279 62.5335 55.9279C63.2099 54.9166 63.6038 53.7043 63.6038 52.4009C63.6038 48.8658 60.7063 46 57.1321 46C53.5579 46 50.6604 48.8658 50.6604 52.4009C50.6604 53.7043 51.0542 54.9166 51.7306 55.9279C51.7257 55.9279 52.0092 56.3128 52.0216 56.3286Z" fill="url(#paint2_linear_702_8238)"/>
<path d="M30.2441 44C32.4239 44 34.0912 44.3929 35.2461 45.1786C36.4154 45.9643 37 47.1929 37 48.8643C37 49.7357 36.8412 50.4857 36.5236 51.1143C36.2205 51.7286 35.773 52.2357 35.1811 52.6357C34.5892 53.0214 33.8675 53.3071 33.0157 53.4929C32.164 53.6786 31.1896 53.7714 30.0925 53.7714H28.7283V59H26V44.3643C26.6352 44.2214 27.3353 44.1286 28.1004 44.0857C28.8799 44.0286 29.5945 44 30.2441 44ZM30.439 46.3357C29.7461 46.3357 29.1759 46.3571 28.7283 46.4V51.4571H30.0492C31.3629 51.4571 32.3734 51.2786 33.0807 50.9214C33.7881 50.55 34.1417 49.8571 34.1417 48.8429C34.1417 48.3571 34.0479 47.95 33.8602 47.6214C33.6726 47.2929 33.4127 47.0357 33.0807 46.85C32.7487 46.6643 32.3517 46.5357 31.8898 46.4643C31.4423 46.3786 30.9587 46.3357 30.439 46.3357Z" fill="#006AAD"/>
</g>
<defs>
<filter id="filter0_d_702_8238" x="-3" y="11" width="68" height="77" filterUnits="userSpaceOnUse" color-interpolation-filters="sRGB">
<feFlood flood-opacity="0" result="BackgroundImageFix"/>
<feColorMatrix in="SourceAlpha" type="matrix" values="0 0 0 0 0 0 0 0 0 0 0 0 0 0 0 0 0 0 127 0" result="hardAlpha"/>
<feOffset dx="-10" dy="10"/>
<feGaussianBlur stdDeviation="6.5"/>
<feComposite in2="hardAlpha" operator="out"/>
<feColorMatrix type="matrix" values="0 0 0 0 0.509983 0 0 0 0 0.872534 0 0 0 0 0.979167 0 0 0 0.6 0"/>
<feBlend mode="normal" in2="BackgroundImageFix" result="effect1_dropShadow_702_8238"/>
<feBlend mode="normal" in="SourceGraphic" in2="effect1_dropShadow_702_8238" result="shape"/>
</filter>
<filter id="filter1_d_702_8238" x="27.7344" y="11.6138" width="36.6484" height="35.5862" filterUnits="userSpaceOnUse" color-interpolation-filters="sRGB">
<feFlood flood-opacity="0" result="BackgroundImageFix"/>
<feColorMatrix in="SourceAlpha" type="matrix" values="0 0 0 0 0 0 0 0 0 0 0 0 0 0 0 0 0 0 127 0" result="hardAlpha"/>
<feOffset dx="-10" dy="10"/>
<feGaussianBlur stdDeviation="6.5"/>
<feComposite in2="hardAlpha" operator="out"/>
<feColorMatrix type="matrix" values="0 0 0 0 0.509983 0 0 0 0 0.872534 0 0 0 0 0.979167 0 0 0 0.6 0"/>
<feBlend mode="normal" in2="BackgroundImageFix" result="effect1_dropShadow_702_8238"/>
<feBlend mode="normal" in="SourceGraphic" in2="effect1_dropShadow_702_8238" result="shape"/>
</filter>
<linearGradient id="paint0_linear_702_8238" x1="25.25" y1="17.1875" x2="62.9825" y2="55.2261" gradientUnits="userSpaceOnUse">
<stop stop-color="#2AC4F4"/>
<stop offset="1" stop-color="#B4EDFF"/>
</linearGradient>
<linearGradient id="paint1_linear_702_8238" x1="55.9844" y1="-23.6125" x2="93.7169" y2="14.4261" gradientUnits="userSpaceOnUse">
<stop stop-color="white"/>
<stop offset="1" stop-color="#B4EDFF"/>
</linearGradient>
<linearGradient id="paint2_linear_702_8238" x1="51.2222" y1="48.759" x2="68.0047" y2="71.9917" gradientUnits="userSpaceOnUse">
<stop stop-color="#006AAD"/>
<stop offset="1" stop-color="#31D49F"/>
</linearGradient>
<clipPath id="clip0_702_8238">
<rect width="85" height="85" fill="white"/>
</clipPath>
</defs>
</svg>
